<?xml version="1.0" encoding="UTF-8" standalone="no"?>
<!-- Created with Inkscape (http://www.inkscape.org/) -->

<svg
   width="500"
   height="500"
   viewBox="0 0 561.97917 561.97911"
   version="1.1"
   id="svg154"
   xmlns="http://www.w3.org/2000/svg"
   xmlns:svg="http://www.w3.org/2000/svg">
  <defs
     id="defs151">
    <linearGradient
       id="vectorCampGradient-2"
       x1="26.314133"
       y1="4.2952824"
       x2="156.41255"
       y2="4.2952824"
       gradientTransform="matrix(3.3457036,0,0,2.6265941,-24.6851,98.849677)"
       gradientUnits="userSpaceOnUse">
      <!-- {#if isDarkMode} -->
      <stop
         offset="0%"
         stop-color="#FFA500"
         id="stop2218" />
      <stop
         offset="100%"
         stop-color="#FF6600"
         id="stop2220" />
      <!-- {:else}
        <stop offset="0%" stop-color="#cc5500" />
        <stop offset="100%" stop-color="#993300" />
      {/if} -->
    </linearGradient>
  </defs>
  <linearGradient
     id="vectorCampGradient"
     x1="2.4826729"
     y1="6.3705659"
     x2="132.58109"
     y2="6.3705659"
     gradientTransform="matrix(1.1326309,0,0,0.88290017,24.569295,33.001278)"
     gradientUnits="userSpaceOnUse">
    <!-- {#if isDarkMode} -->
    <stop
       offset="0%"
       stop-color="#cc5500"
       id="stop3" />
    <stop
       offset="100%"
       stop-color="#993300"
       id="stop5" />
    <!-- {:else}
        
      {/if} -->
  </linearGradient>
  <g
     id="layer3">
    <ellipse
       style="fill:#ffffff;fill-opacity:1;stroke:none;stroke-width:0.516239;stroke-miterlimit:4;stroke-dasharray:none;stroke-opacity:1"
       id="path1634"
       cx="-215.79999"
       cy="234.23517"
       rx="53.740913"
       ry="53.480614" />
    <ellipse
       style="fill:#000000;fill-opacity:1;stroke:none;stroke-width:2.651;stroke-miterlimit:4;stroke-dasharray:none;stroke-opacity:1"
       id="path1634-2"
       cx="280.98956"
       cy="280.98956"
       rx="279.51593"
       ry="271.05331" />
  </g>
  <g
     id="layer4"
     style="display:inline">
    <g
       id="layer1"
       transform="matrix(0.54750574,0,0,0.58323489,-230.46399,42.658142)">
      <path
         d="m 33.029047,153.09659 c -1.8731,-0.53433 -3.2601,-1.3964 -4.5652,-2.8374 l -1.0826,-1.1953 0.50202,-0.70708 c 0.27611,-0.38889 1.0167,-1.2167 1.6458,-1.8396 1.0035,-0.99367 1.1625,-1.0726 1.2964,-0.64316 0.0839,0.26917 0.57672,0.93379 1.0951,1.4769 2.6637,2.7911 6.754,2.8406 8.0807,0.0978 0.97973,-2.0254 -0.15102,-3.5504 -3.6136,-4.8735 -4.9474,-1.8905 -6.5327,-2.9479 -7.3418,-4.897 -0.59326,-1.4292 -0.4747,-4.4148 0.22931,-5.7744 1.3668,-2.6395 4.480201,-4.0193 8.6392,-3.8286 2.6138,0.11976 4.3416,0.74295 6.1263,2.2094 l 0.93208,0.76585 -1.2753,1.6731 c -0.70141,0.92022 -1.3106,1.7104 -1.3538,1.7559 -0.0432,0.0455 -0.60959,-0.32981 -1.2586,-0.83403 -0.64906,-0.50423 -1.6083,-1.0378 -2.1316,-1.1857 -2.757,-0.77925 -5.4196,0.31368 -5.4736,2.2467 -0.0459,1.6415 0.586201,2.1514 4.3344,3.4964 2.9116,1.0448 4.3319,1.7979 5.3978,2.862 3.4672,3.4614 1.9459,9.8536 -2.7816,11.688 -1.8701,0.72552 -5.4767,0.89322 -7.4014,0.34418 z m 75.955993,0.0132 c -2.0041,-0.55336 -2.6421,-0.85138 -4.1803,-1.9527 -3.2734,-2.3435 -4.978103,-5.9637 -4.955703,-10.524 0.0185,-3.7509 1.379403,-6.9901 3.941503,-9.3807 2.6102,-2.4356 5.2198,-3.3422 9.1388,-3.175 2.9448,0.12565 4.6833,0.83165 6.644,2.6982 l 1.2848,1.2231 v -15.923 h 5.10671 v 36.901 h -4.85141 v -3.6823 l -1.2128,1.0886 c -2.989,2.6828 -7.2341,3.7432 -10.916,2.7267 z m 6.8582,-4.2995 c 1.8539,-0.70591 3.5472,-2.272 4.4261,-4.0934 0.62396,-1.2932 0.71651,-1.7871 0.71651,-3.8238 0,-1.9868 -0.10179,-2.5597 -0.67613,-3.8065 -0.82374,-1.7882 -2.2615,-3.2989 -3.9396,-4.1394 -1.776,-0.88958 -5.3269,-0.90449 -6.9497,-0.0293 -1.6743,0.90303 -2.9426,2.2044 -3.7701,3.8682 -0.67318,1.3536 -0.75013,1.7615 -0.75038,3.977 -2.5e-4,2.1782 0.0838,2.6431 0.71475,3.9506 0.84519,1.7517 2.7975,3.6413 4.3341,4.1951 1.5992,0.57632 4.238,0.53219 5.8944,-0.0986 z m 32.509,4.1748 c -2.4884,-0.8092 -4.2218,-2.3689 -5.0101,-4.5079 -0.38434,-1.0429 -0.33348,-4.4568 0.0815,-5.4675 1.3088,-3.188 4.6035,-4.4784 12.735,-4.9878 l 3.0002,-0.18794 -0.001,-0.67931 c -0.005,-2.3843 -1.5669,-4.4501 -3.7193,-4.9193 -2.5288,-0.55123 -5.4916,0.70687 -6.4421,2.7355 -0.42312,0.90306 -0.44095,0.91094 -1.7073,0.75604 -0.70383,-0.0861 -1.6678,-0.15756 -2.1422,-0.15881 l -0.86248,-0.003 0.16706,-1.0633 c 0.38144,-2.4277 1.8958,-4.2948 4.483,-5.5269 1.4578,-0.69429 1.9904,-0.7999 4.5336,-0.89897 2.484,-0.0968 3.1286,-0.0315 4.6701,0.47296 2.8989,0.94866 4.7163,2.9159 5.3492,5.7902 0.14017,0.63659 0.26377,5.055 0.27468,9.8186 l 0.0198,8.6612 -4.6227,0.0388 v -3.3785 l -0.74261,0.91688 c -2.2387,2.7641 -6.306,3.8101 -10.064,2.5881 z m 7.1041,-4.146 c 2.0999,-0.9388 3.7024,-3.6674 3.7024,-6.3041 v -0.99229 l -1.4682,0.001 c -2.3815,0.003 -6.4748,0.72812 -7.6938,1.3639 -2.5531,1.3316 -2.6731,4.518 -0.21923,5.8189 1.8012,0.95495 3.7093,0.99258 5.6788,0.11197 z m -22.056,3.9532 c -2.7155,-1.3615 -2.2303,-5.4387 0.75548,-6.3491 2.6508,-0.80827 5.1123,2.1173 3.8997,4.6348 -0.91978,1.9096 -2.8488,2.62 -4.6552,1.7143 z m -84.546993,-12.094 v -12.149 h 4.5961 v 24.297 h -4.5961 z m 10.213,0 v -12.149 h 4.8514 l 9.5e-4,1.7541 9.6e-4,1.7541 0.47952,-0.80031 c 1.2354,-2.0619 3.6437,-3.2276 6.668,-3.2276 3.2678,0 5.619,1.2684 6.8974,3.7208 l 0.60529,1.1612 0.67799,-1.0767 c 0.96821,-1.5376 1.9897,-2.5018 3.3095,-3.124 0.9417,-0.4439 1.6558,-0.54251 3.9577,-0.54651 2.5622,-0.004 2.936,0.0587 4.2594,0.72015 2.5954,1.2971 4.088295,3.705 4.559895,7.354 0.14758,1.1421 0.23271,5.2895 0.19156,9.3319 l -0.0741,7.2762 -4.499595,-0.014 0.0208,-7.1386 c 0.012,-4.1276 -0.0966,-7.7962 -0.25759,-8.6977 -0.54879,-3.0735 -2.3163,-4.5996 -5.3272,-4.5996 -2.4804,0 -4.1613,1.1024 -5.2303,3.4302 -0.50267,1.0946 -0.54213,1.6786 -0.61729,9.1348 l -0.0803,7.9654 -4.5631,-0.012 v -7.7176 c 0,-8.4496 -0.15402,-9.6305 -1.4626,-11.213 -0.90717,-1.0972 -2.0214,-1.5362 -3.8995,-1.5362 -2.506,0 -4.0253,0.98127 -5.0293,3.2483 -0.40537,0.91526 -0.46992,2.002 -0.54023,9.0953 l -0.0798,8.0558 h -4.8194 z m 110.309993,0.0103 v -12.16 h 4.8564 l -0.0664,12.129 -0.0664,12.129 -4.7237,0.0606 z m -119.949993,-16.838 c -1.5349,-0.95243 -1.8411,-3.2896 -0.60703,-4.6341 1.2981,-1.4142 3.3288,-1.4203 4.4919,-0.0132 0.51155,0.61872 0.65373,1.0746 0.65373,2.0961 0,1.138 -0.11128,1.4186 -0.86814,2.1889 -1.0364,1.0548 -2.3465,1.1842 -3.6704,0.36272 z m 120.649993,0.0802 c -0.96168,-0.628 -1.5582,-1.9857 -1.3556,-3.0852 0.4853,-2.6327 3.4249,-3.5669 5.2807,-1.6782 0.61431,0.62521 0.73329,0.95968 0.73329,2.0615 0,1.8626 -0.92159,2.9067 -2.6962,3.0544 -0.90679,0.0755 -1.4586,-0.0237 -1.9623,-0.35255 z m -115.349993,-11.722 c -0.61526,-0.50704 -0.86756,-1.7088 -0.50393,-2.4003 0.12459,-0.23692 1.589,-2.4657 3.2542,-4.9527 6.7297,-10.051001 18.292,-27.374001 30.424,-45.581001 7.047395,-10.577 13.153993,-19.551999 13.570993,-19.944999 0.46781,-0.44145 1.0431,-0.71463 1.505,-0.71463 1.3541,0 0.61696,-0.99373 13.021,17.553999 2.7325,4.0858 5.0402,7.474 5.1283,7.5294 0.1618,0.10178 9.7471,-10.11 9.9049,-10.553 0.0469,-0.13122 -0.24044,-0.24981 -0.63835,-0.26353 -0.39788,-0.01368 -1.2837,-0.1599 -1.9685,-0.32483 l -1.245,-0.29988 2.9047,-1.6658 c 9.9867,-5.727199 13.313,-7.578099 13.42,-7.468699 0.0669,0.06802 -1.8639,3.7678 -4.2906,8.221699 -4.7316,8.6846 -4.6049,8.5387 -4.9719,5.7228 -0.0933,-0.71597 -0.25405,-1.3018 -0.35717,-1.3018 -0.10309,0 -0.73956,0.61393 -1.4143,1.3643 -1.6984,1.8887 -4.9595,5.3955 -7.24149,7.787 l -1.91321,2.005 3.5115,5.2712 c 1.9314,2.8992 4.8421,7.2592 6.4682,9.6889 17.88,26.715001 18.716,28.004001 18.716,28.860001 0,0.61644 -0.1889,1.0084 -0.67278,1.3957 -0.87193,0.69803 -1.6981,0.68265 -2.4773,-0.0461 -0.34384,-0.32158 -5.542,-7.9519 -11.551,-16.956001 -6.0094,-9.0043 -11.28599,-16.898 -11.72599,-17.541 -0.4399,-0.64317 -1.7514,-2.5998 -2.91441,-4.348 l -2.1146,-3.1786 -2.4782,2.6589 c -1.363,1.4624 -7.0092,7.5119 -12.547,13.443 -5.537903,5.9314 -11.046998,11.835 -12.241993,13.119004 -1.1954,1.284197 -3.4375,3.681997 -4.9822,5.328397 -1.5448,1.6464 -3.8701,4.1331 -5.1674,5.526 l -2.3587,2.5325 h -12.742 c -11.897,0 -12.779,-0.031 -13.31,-0.46855 z m 26.984,-6.093 c 1.5417,-1.6079 6.1758,-6.548597 10.298,-10.979001 4.122295,-4.4307 8.826593,-9.4591 10.453993,-11.174 1.6273,-1.7151 5.8663,-6.246 9.4198,-10.069 l 6.461,-6.9504 -5.3166,-7.9347 c -8.2123,-12.255999 -9.9563,-14.805999 -10.128,-14.805999 -0.0876,0 -4.651298,6.723999 -10.141993,14.941999 -20.106,30.095 -32.194,48.225001 -32.705,49.050001 l -0.52288,0.84456 h 19.378 z"
         stroke-width="1.3839"
         id="path49"
         fill="url(#vectorCampGradient)"
         stroke="none"
         style="fill:url(#vectorCampGradient)" />
    </g>
    <path
       d="m -404.96792,486.72073 c -7.95699,-2.26985 -13.84901,-5.93196 -19.39311,-12.05337 l -4.59892,-5.07767 2.13259,-3.0037 c 1.17293,-1.65202 4.31898,-5.16858 6.99141,-7.81468 4.2629,-4.22114 4.93834,-4.55643 5.50715,-2.73216 0.35658,1.14344 2.44993,3.96677 4.65202,6.27392 11.31548,11.85668 28.69121,12.06695 34.32707,0.41545 4.16192,-8.60396 -0.64154,-15.08221 -15.35069,-20.70278 -21.01671,-8.0309 -27.75111,-12.52277 -31.18819,-20.80261 -2.52019,-6.07128 -2.01654,-18.7542 0.97411,-24.52983 5.80621,-11.21268 19.03203,-17.07411 36.6996,-16.26401 11.1035,0.50874 18.44325,3.15607 26.02471,9.3856 l 3.9595,3.25335 -5.41751,7.10738 c -2.97961,3.90913 -5.56747,7.26584 -5.75098,7.45912 -0.18352,0.19329 -2.58956,-1.40104 -5.34658,-3.54298 -2.75722,-2.14199 -6.83211,-4.40861 -9.0551,-5.0369 -11.71182,-3.31027 -23.02263,1.33253 -23.25202,9.54406 -0.19478,6.97314 2.49019,9.13921 18.41266,14.85282 12.36857,4.43834 18.40205,7.63753 22.93003,12.15786 14.72877,14.70414 8.26624,41.8584 -11.81633,49.65099 -7.94424,3.08203 -23.26519,3.79443 -31.44138,1.46209 z m 322.66347,0.0561 c -8.51348,-2.35069 -11.22372,-3.61669 -17.75805,-8.29513 -13.9055,-9.95526 -21.14712,-25.33399 -21.05196,-44.70628 0.0786,-15.93394 5.85973,-29.69417 16.74361,-39.84951 11.08821,-10.34651 22.17387,-14.19777 38.82191,-13.4875 12.5096,0.53376 19.8948,3.53287 28.22392,11.46203 l 5.45787,5.19577 v -67.64142 h 21.69342 v 156.75663 h -20.6089 v -15.64253 l -5.15201,4.62441 c -12.69737,11.39662 -30.73068,15.90123 -46.37151,11.5831 z m 29.13385,-18.26441 c 7.87542,-2.99873 15.06861,-9.65153 18.80221,-17.38889 2.6506,-5.49356 3.04376,-7.59166 3.04376,-16.24362 0,-8.43999 -0.43241,-10.87369 -2.87223,-16.17014 -3.49927,-7.59633 -9.60692,-14.01383 -16.73554,-17.5843 -7.5445,-3.77896 -22.62884,-3.8423 -29.52254,-0.12446 -7.11248,3.8361 -12.50026,9.36436 -16.01551,16.43223 -2.85968,5.75014 -3.18657,7.48291 -3.18763,16.89442 -0.001,9.25306 0.35598,11.22797 3.03628,16.78227 3.59039,7.44128 11.88386,15.46836 18.41139,17.82092 6.79345,2.44823 18.00316,2.26076 25.0396,-0.41886 z M 84.92864,486.2471 c -10.5708,-3.43751 -17.93434,-10.06316 -21.28306,-19.1497 -1.63269,-4.43027 -1.41663,-18.93263 0.34622,-23.22611 5.55982,-13.54273 19.55581,-19.02438 54.09867,-21.18833 l 12.74495,-0.79838 -0.004,-2.88573 c -0.0212,-10.12858 -6.65624,-18.90417 -15.7997,-20.89734 -10.74242,-2.34164 -23.32849,3.00281 -27.36625,11.62049 -1.79742,3.83623 -1.87316,3.8697 -7.25266,3.21168 -2.98989,-0.36575 -7.08487,-0.66932 -9.10013,-0.67463 l -3.66384,-0.0127 0.70967,-4.51693 c 1.62037,-10.31295 8.05342,-18.24445 19.04393,-23.47845 6.19278,-2.94937 8.45528,-3.398 19.25887,-3.81885 10.55211,-0.41121 13.29039,-0.13382 19.83873,2.00915 12.31462,4.02993 20.03499,12.38683 22.72357,24.59695 0.59545,2.70426 1.1205,21.4738 1.16685,41.70972 l 0.0841,36.79305 -19.63737,0.16482 v -14.35197 l -3.15463,3.89493 c -9.51007,11.74199 -26.78809,16.18543 -42.75219,10.99433 z m 30.17844,-17.61234 c 8.92044,-3.98805 15.72791,-15.57923 15.72791,-26.78001 v -4.21528 l -6.23696,0.004 c -10.11668,0.0127 -27.50515,3.09307 -32.6835,5.79389 -10.84565,5.65668 -11.35541,19.1926 -0.9313,24.71887 7.65156,4.05665 15.75723,4.21651 24.12372,0.47565 z M 21.4125,485.42808 c -11.5355299,-5.78369 -9.47438,-23.10377 3.20931,-26.97118 11.26068,-3.43355 21.71721,8.99436 16.56604,19.68878 -3.90725,8.11204 -12.10179,11.12984 -19.77543,7.2824 z m -359.1583,-51.37569 v -51.60934 h 19.52438 v 103.21442 h -19.52438 z m 43.38515,0 1e-5,-51.60934 h 20.6089 l 0.004,7.45147 0.004,7.45148 2.03701,-3.39975 c 5.24802,-8.75901 15.47855,-13.71094 28.32588,-13.71094 13.88171,0 23.86968,5.3882 29.30037,15.80607 l 2.57129,4.93282 2.88012,-4.57386 c 4.11299,-6.53177 8.45231,-10.62772 14.05886,-13.27085 4.00037,-1.8857 7.03389,-2.3046 16.81243,-2.32159 10.88431,-0.017 12.47222,0.24936 18.09407,3.05922 11.02534,5.51012 17.36722,15.73896 19.37059,31.24003 0.62692,4.85167 0.98856,22.46996 0.81375,39.6422 l -0.31478,30.90953 -19.11443,-0.0595 0.0884,-30.32499 c 0.0508,-17.53418 -0.41045,-33.11851 -1.09425,-36.94811 -2.33128,-13.05632 -9.83972,-19.53924 -22.63011,-19.53924 -10.53682,0 -17.67734,4.68303 -22.21848,14.5716 -2.13536,4.64989 -2.30299,7.13074 -2.62227,38.80491 l -0.34112,33.83727 -19.38419,-0.051 v -32.78459 c 0,-35.89417 -0.65428,-40.91067 -6.21317,-47.63318 -3.85368,-4.66094 -8.58697,-6.52583 -16.5652,-6.52583 -10.64556,0 -17.0996,4.16847 -21.36462,13.79889 -1.72202,3.88805 -1.99623,8.50456 -2.29491,38.63712 l -0.33917,34.22129 h -20.47296 z m 468.60033,0.0438 v -51.65606 h 20.63014 l -0.28207,51.52437 -0.28207,51.52438 -20.06643,0.25743 z m -509.55136,-71.52845 c -6.5203,-4.04595 -7.82105,-13.97432 -2.57868,-19.6858 5.51437,-6.00757 14.14085,-6.03348 19.08173,-0.0562 2.17308,2.62834 2.77707,4.56493 2.77707,8.90429 0,4.83426 -0.47272,6.02626 -3.68789,9.29852 -4.40266,4.48082 -9.968,5.03054 -15.59197,1.54085 z m 512.52498,0.34069 c -4.08525,-2.66776 -6.61928,-8.43531 -5.75863,-13.10602 2.06157,-11.18379 14.54908,-15.15231 22.43258,-7.12905 2.60961,2.65591 3.11504,4.07675 3.11504,8.75732 0,7.91238 -3.91495,12.34775 -11.45355,12.97518 -3.85207,0.32073 -6.19617,-0.10067 -8.33591,-1.49764 z m -490.01041,-49.79542 c -2.61364,-2.15392 -3.68542,-7.25903 -2.14071,-10.19655 0.52926,-1.00644 6.75012,-10.47437 13.82394,-21.03922 28.58798,-42.69697 77.70499,-116.28561 129.24211,-193.629521 29.93757,-44.931425 55.8786,-83.0575018 57.65003,-84.7269788 1.98728,-1.875293 4.43113,-3.03576999 6.39329,-3.03576999 5.75226,0 2.62087,-4.22139601 55.31362,74.56993779 11.60774,17.356611 21.41092,31.749782 21.78518,31.985132 0.68733,0.43236 41.40598,-42.947602 42.07632,-44.829479 0.19923,-0.557427 -1.0214,-1.061201 -2.7117299,-1.119484 -1.69021,-0.05811 -5.4532,-0.67926 -8.36225,-1.379888 l -5.2888,-1.2739 12.33925,-7.07637 C 49.74696,27.031598 63.87718,19.168917 64.33172,19.633652 c 0.2842,0.288951 -7.9179,16.005732 -18.2266,34.926034 -20.09998,36.892453 -19.56176,36.272663 -21.12079,24.310633 -0.39634,-3.041462 -1.07921,-5.530086 -1.51727,-5.530086 -0.43793,0 -3.14167,2.607994 -6.00799,5.795586 -7.21485,8.02326 -21.0681099,22.920261 -30.76212,33.079421 l -8.12733,8.51731 14.9169601,22.39222 c 8.20465,12.31589 20.5693999,30.83731 27.4771199,41.15875 75.9548,113.48615 79.50615,118.96187 79.50615,122.59818 0,2.61866 -0.80245,4.28372 -2.85799,5.92898 -3.70398,2.96525 -7.21358,2.89992 -10.52365,-0.19562 -1.46064,-1.36609 -23.54258,-33.77992 -49.069,-72.02962 -25.52812,-38.25055 -47.9432899,-71.78323 -49.81242,-74.51472 -1.86871,-2.73221 -7.44,-11.04403 -12.38046,-18.47044 l -8.98288,-13.50279 -10.52748,11.29509 c -5.79006,6.21232 -29.7753,31.91079 -53.30004,57.10628 -23.52518,25.19678 -46.92801,50.27545 -52.00441,55.72993 -5.07809,5.45532 -14.60261,15.64125 -21.16454,22.63521 -6.56236,6.99396 -16.44031,17.55753 -21.95128,23.47462 l -10.01983,10.75814 h -54.12841 c -50.53883,0 -54.28559,-0.13186 -56.5413,-1.99042 z m 114.62888,-25.88325 c 6.54919,-6.83041 26.23499,-27.81866 43.74622,-46.63914 17.51166,-18.82175 37.49568,-40.18255 44.40893,-47.4675 6.91282,-7.2858 24.92022,-26.5332 40.0156,-42.77343 l 27.44653,-29.52551 -22.58508,-33.706861 c -34.88611,-52.063866 -42.29468,-62.896346 -43.02406,-62.896346 -0.37213,0 -19.75887,28.563758 -43.08354,63.474076 -85.41092,127.844511 -136.76112,204.861311 -138.93186,208.365941 l -2.22121,3.58772 h 82.31835 z"
       stroke-width="5.87885"
       fill="url(#vectorCampGradient)"
       stroke="none"
       id="path49-5"
       style="fill:url(#vectorCampGradient-7)" />
    <path
       d="m -179.71978,-31.829252 c -7.95699,-2.26985 -13.849,-5.93196 -19.39311,-12.05337 l -4.59892,-5.07767 2.1326,-3.0037 c 1.17292,-1.65202 4.31897,-5.16858 6.99141,-7.81468 4.2629,-4.22114 4.93833,-4.55643 5.50715,-2.73216 0.35657,1.14344 2.44992,3.96677 4.65202,6.27392 11.31548,11.85668 28.6912,12.06695 34.32706,0.41545 4.16193,-8.60396 -0.64153,-15.08221 -15.35068,-20.70278 -21.01672,-8.0309 -27.75112,-12.52277 -31.1882,-20.80261 -2.52019,-6.071278 -2.01654,-18.754198 0.97411,-24.529828 5.80621,-11.21268 19.03204,-17.07411 36.6996,-16.26401 11.1035,0.50874 18.44325,3.15607 26.02471,9.3856 l 3.95951,3.25335 -5.41752,7.10738 c -2.97961,3.90913 -5.56747,7.26584 -5.75098,7.45912 -0.18352,0.19329 -2.58956,-1.40104 -5.34657,-3.54298 -2.75723,-2.14199 -6.83211,-4.40861 -9.05511,-5.0369 -11.71182,-3.31027 -23.02263,1.33253 -23.25202,9.54406 -0.19477,6.97314 2.49019,9.13921 18.41267,14.852818 12.36856,4.43834 18.40204,7.63753 22.93002,12.15786 14.72877,14.70414 8.26624,41.8584 -11.81632,49.65099 -7.94425,3.08203 -23.2652,3.79443 -31.44138,1.46209 z m 322.66347,0.0561 c -8.51348,-2.35069 -11.22372,-3.61669 -17.75805,-8.29513 -13.9055,-9.95526 -21.14712,-25.33399 -21.05196,-44.70628 0.0786,-15.933938 5.85973,-29.694168 16.74361,-39.849508 11.08821,-10.34651 22.17387,-14.19777 38.82191,-13.4875 12.5096,0.53376 19.8948,3.53287 28.22392,11.46203 l 5.45787,5.19577 v -67.64142 h 21.69342 v 156.756628 h -20.6089 v -15.64253 l -5.15201,4.62441 c -12.69737,11.39662 -30.73068,15.90123 -46.37151,11.5831 z m 29.13385,-18.26441 c 7.87542,-2.99873 15.06861,-9.65153 18.80221,-17.38889 2.6506,-5.49356 3.04376,-7.59166 3.04376,-16.24362 0,-8.43999 -0.43241,-10.87369 -2.87223,-16.17014 -3.49927,-7.596328 -9.60692,-14.013828 -16.73554,-17.584298 -7.5445,-3.77896 -22.62884,-3.8423 -29.52254,-0.12446 -7.11248,3.8361 -12.50026,9.36436 -16.01551,16.43223 -2.85968,5.750138 -3.18657,7.482908 -3.18763,16.894418 -10e-4,9.25306 0.35598,11.22797 3.03628,16.78227 3.59039,7.44128 11.88386,15.46836 18.41139,17.82092 6.79345,2.44823 18.00316,2.26076 25.0396,-0.41886 z m 138.09924,17.73468 c -10.5708,-3.43751 -17.93434,-10.06316 -21.28306,-19.1497 -1.63269,-4.43027 -1.41663,-18.93263 0.34622,-23.22611 5.55982,-13.54273 19.55581,-19.02438 54.09867,-21.18833 l 12.74495,-0.79838 -0.004,-2.88573 c -0.0212,-10.128578 -6.65624,-18.904168 -15.7997,-20.897338 -10.74242,-2.34164 -23.32849,3.00281 -27.36625,11.62049 -1.79742,3.83623 -1.87316,3.8697 -7.25266,3.21168 -2.98989,-0.36575 -7.08487,-0.66932 -9.10013,-0.67463 l -3.66384,-0.0127 0.70967,-4.51693 c 1.62037,-10.31295 8.05342,-18.24445 19.04393,-23.47845 6.19278,-2.94937 8.45528,-3.398 19.25887,-3.81885 10.55211,-0.41121 13.29039,-0.13382 19.83873,2.00915 12.31462,4.02993 20.03499,12.38683 22.72357,24.59695 0.59545,2.70426 1.1205,21.473798 1.16685,41.709718 l 0.0841,36.79305 -19.63737,0.16482 v -14.35197 l -3.15463,3.89493 c -9.51007,11.74199 -26.78809,16.18543 -42.75219,10.99433 z m 30.17844,-17.61234 c 8.92044,-3.98805 15.72791,-15.57923 15.72791,-26.78001 v -4.21528 l -6.23696,0.004 c -10.11668,0.0127 -27.50515,3.09307 -32.6835,5.79389 -10.84565,5.65668 -11.35541,19.1926 -0.9313,24.71887 7.65156,4.05665 15.75723,4.21651 24.12372,0.47565 z m -93.69458,16.79332 c -11.53553,-5.78369 -9.47438,-23.10377 3.20931,-26.97118 11.26068,-3.43355 21.71721,8.99436 16.56604,19.68878 -3.90725,8.11204 -12.10179,11.12984 -19.77543,7.2824 z m -359.1583,-51.37569 v -51.609338 h 19.524384 v 103.214418 h -19.524384 z m 43.385154,0 1e-5,-51.609338 h 20.6089 l 0.004,7.45147 0.004,7.45148 2.03701,-3.39975 c 5.24802,-8.75901 15.47855,-13.71094 28.32588,-13.71094 13.8817097,0 23.8696797,5.3882 29.30037,15.80607 l 2.57129,4.93282 2.88012,-4.57386 c 4.11299,-6.53177 8.45231,-10.62772 14.05886,-13.27085 4.00037,-1.8857 7.03389,-2.3046 16.81243,-2.32159 10.88431,-0.017 12.47222,0.24936 18.09407,3.05922 11.02534,5.51012 17.36722,15.73896 19.37059,31.24003 0.62692,4.851668 0.98856,22.469958 0.81375,39.642198 l -0.31478,30.90953 -19.11443,-0.0595 0.0884,-30.32499 c 0.0508,-17.53418 -0.41045,-33.11851 -1.09425,-36.948108 -2.33128,-13.05632 -9.83972,-19.53924 -22.63011,-19.53924 -10.53682,0 -17.67734,4.68303 -22.21848,14.5716 -2.13536,4.64989 -2.30299,7.130738 -2.62227,38.804908 l -0.34112,33.83727 -19.3841903,-0.051 v -32.78459 c 0,-35.894168 -0.65428,-40.910668 -6.21317,-47.633178 -3.8536797,-4.66094 -8.5869697,-6.52583 -16.5651997,-6.52583 -10.64556,0 -17.0996,4.16847 -21.36462,13.79889 -1.72202,3.88805 -1.99623,8.504558 -2.29491,38.637118 l -0.33917,34.22129 h -20.47296 z m 468.600326,0.0438 v -51.656058 h 20.63014 l -0.28207,51.524368 -0.28207,51.52438 -20.06643,0.25743 z m -509.55136,-71.528448 c -6.5203,-4.04595 -7.82105,-13.97432 -2.57868,-19.6858 5.51437,-6.00757 14.140854,-6.03348 19.081734,-0.0562 2.17308,2.62834 2.77707,4.56493 2.77707,8.90429 0,4.83426 -0.47272,6.02626 -3.68789,9.29852 -4.40266,4.48082 -9.968004,5.03054 -15.591974,1.54085 z m 512.52498,0.34069 c -4.08525,-2.66776 -6.61928,-8.43531 -5.75863,-13.10602 2.06157,-11.18379 14.54908,-15.15231 22.43258,-7.12905 2.60961,2.65591 3.11504,4.07675 3.11504,8.75732 0,7.91238 -3.91495,12.34775 -11.45355,12.97518 -3.85207,0.32073 -6.19617,-0.10067 -8.33591,-1.49764 z m -490.010406,-49.79542 c -2.61364,-2.15392 -3.68542,-7.25903 -2.14071,-10.19655 0.52926,-1.00644 6.75012,-10.47437 13.82394,-21.03922 28.58798,-42.69697 77.7049897,-116.28561 129.24211,-193.62952 29.93757,-44.93143 55.878596,-83.0575 57.650026,-84.72698 1.98728,-1.87529 4.43113,-3.03577 6.39329,-3.03577 5.75226,0 2.62087,-4.2214 55.31362,74.56994 11.60774,17.35661 21.41092,31.74978 21.78518,31.98513 0.68733,0.43236 41.40598,-42.9476 42.07632,-44.82948 0.19923,-0.55743 -1.0214,-1.0612 -2.71173,-1.11948 -1.69021,-0.0581 -5.4532,-0.67926 -8.36225,-1.37989 l -5.2888,-1.2739 12.33925,-7.07637 c 42.42382,-24.32932 56.55404,-32.192 57.00858,-31.72727 0.2842,0.28895 -7.9179,16.00573 -18.2266,34.92603 -20.09998,36.89246 -19.56176,36.27267 -21.12079,24.31064 -0.39634,-3.04146 -1.07921,-5.53009 -1.51727,-5.53009 -0.43793,0 -3.14167,2.608 -6.00799,5.79559 -7.21485,8.02326 -21.06811,22.92026 -30.76212,33.07942 l -8.12733,8.51731 14.91696,22.39222 c 8.20465,12.31589 20.5694,30.83731 27.47712,41.15875 75.9548,113.48615 79.50615,118.96187 79.50615,122.59818 0,2.61866 -0.80245,4.28372 -2.85799,5.92898 -3.70398,2.96525 -7.21358,2.89992 -10.52365,-0.19562 -1.46064,-1.36609 -23.54258,-33.77992 -49.069,-72.02962 -25.52812,-38.25055 -47.94329,-71.78323 -49.81242,-74.51472 -1.86871,-2.73221 -7.44,-11.04403 -12.38046,-18.47044 l -8.98288,-13.50279 -10.52748,11.29509 c -5.79006,6.21232 -29.7753,31.91079 -53.30004,57.10628 -23.52518,25.19678 -46.928006,50.27545 -52.004406,55.72993 -5.07809,5.45532 -14.60261,15.64125 -21.16454,22.63521 -6.56236,6.99396 -16.44031,17.55753 -21.95128,23.47462 l -10.01983,10.75814 h -54.12841 c -50.53883,0 -54.28559,-0.13186 -56.5413,-1.99042 z m 114.62888,-25.88325 c 6.54919,-6.83041 26.23499,-27.81866 43.74622,-46.63914 17.51166,-18.82175 37.495676,-40.18255 44.408926,-47.4675 6.91282,-7.2858 24.92022,-26.5332 40.0156,-42.77343 l 27.44653,-29.52551 -22.58508,-33.70686 c -34.88611,-52.06387 -42.29468,-62.89635 -43.02406,-62.89635 -0.37213,0 -19.758866,28.56376 -43.083536,63.47408 -85.41092,127.84451 -136.76112,204.86131 -138.93186,208.36594 l -2.22121,3.58772 h 82.31835 z"
       stroke-width="5.87885"
       fill="url(#vectorCampGradient)"
       stroke="none"
       id="path49-56"
       style="fill:url(#vectorCampGradient-3)" />
    <path
       d="m -291.02238,512.73028 c -7.95699,-2.26985 -13.84901,-5.93196 -19.39311,-12.05337 l -4.59892,-5.07767 2.13259,-3.0037 c 1.17293,-1.65202 4.31898,-5.16858 6.99141,-7.81468 4.2629,-4.22114 4.93834,-4.55643 5.50715,-2.73216 0.35658,1.14344 2.44993,3.96677 4.65202,6.27392 11.31548,11.85668 28.69121,12.06695 34.32707,0.41545 4.16192,-8.60396 -0.64154,-15.08221 -15.35069,-20.70278 -21.01671,-8.0309 -27.75111,-12.52277 -31.18819,-20.80261 -2.52019,-6.07128 -2.01654,-18.7542 0.97411,-24.52983 5.80621,-11.21268 19.03203,-17.07411 36.6996,-16.26401 11.1035,0.50874 18.44325,3.15607 26.02471,9.3856 l 3.9595,3.25335 -5.41751,7.10738 c -2.97961,3.90913 -5.56747,7.26584 -5.75098,7.45912 -0.18352,0.19329 -2.58956,-1.40104 -5.34658,-3.54298 -2.75722,-2.14199 -6.83211,-4.40861 -9.0551,-5.0369 -11.71182,-3.31027 -23.02263,1.33253 -23.25202,9.54406 -0.19478,6.97314 2.49019,9.13921 18.41266,14.85282 12.36857,4.43834 18.40205,7.63753 22.93003,12.15786 14.72877,14.70414 8.26624,41.8584 -11.81633,49.65099 -7.94424,3.08203 -23.26519,3.79443 -31.44138,1.46209 z m 322.66347,0.0561 c -8.51348,-2.35069 -11.22372,-3.61669 -17.75805,-8.29513 -13.90549985,-9.95526 -21.1471199,-25.33399 -21.0519599,-44.70628 0.0786,-15.93394 5.85973,-29.69417 16.74361,-39.84951 C 20.6629,409.58895 31.74856,405.73769 48.3966,406.44796 c 12.5096,0.53376 19.8948,3.53287 28.22392,11.46203 l 5.45787,5.19577 v -67.64142 h 21.69342 v 156.75663 h -20.6089 v -15.64253 l -5.15201,4.62441 c -12.69737,11.39662 -30.73068,15.90123 -46.37151,11.5831 z m 29.13385,-18.26441 c 7.87542,-2.99873 15.06861,-9.65153 18.80221,-17.38889 2.6506,-5.49356 3.04376,-7.59166 3.04376,-16.24362 0,-8.43999 -0.43241,-10.87369 -2.87223,-16.17014 -3.49927,-7.59633 -9.60692,-14.01383 -16.73554,-17.5843 -7.5445,-3.77896 -22.62884,-3.8423 -29.52254,-0.12446 -7.11248,3.8361 -12.50026,9.36436 -16.01551,16.43223 -2.85968,5.75014 -3.18657,7.48291 -3.18763,16.89442 -10e-4,9.25306 0.35598,11.22797 3.03628,16.78227 3.59039,7.44128 11.88386,15.46836 18.41139,17.82092 6.79345,2.44823 18.00316,2.26076 25.0396,-0.41886 z m 138.09924,17.73468 c -10.5708,-3.43751 -17.93434,-10.06316 -21.28306,-19.1497 -1.63269,-4.43027 -1.41663,-18.93263 0.34622,-23.22611 5.55982,-13.54273 19.55581,-19.02438 54.09867,-21.18833 l 12.74495,-0.79838 -0.004,-2.88573 c -0.0212,-10.12858 -6.65624,-18.90417 -15.7997,-20.89734 -10.74242,-2.34164 -23.32849,3.00281 -27.36625,11.62049 -1.79742,3.83623 -1.87316,3.8697 -7.25266,3.21168 -2.98989,-0.36575 -7.08487,-0.66932 -9.10013,-0.67463 l -3.66384,-0.0127 0.70967,-4.51693 c 1.62037,-10.31295 8.05342,-18.24445 19.04393,-23.47845 6.19278,-2.94937 8.45528,-3.398 19.25887,-3.81885 10.55211,-0.41121 13.29039,-0.13382 19.83873,2.00915 12.31462,4.02993 20.03499,12.38683 22.72357,24.59695 0.59545,2.70426 1.1205,21.4738 1.16685,41.70972 l 0.0841,36.79305 -19.63737,0.16482 v -14.35197 l -3.15463,3.89493 c -9.51007,11.74199 -26.78809,16.18543 -42.75219,10.99433 z m 30.17844,-17.61234 c 8.92044,-3.98805 15.72791,-15.57923 15.72791,-26.78001 v -4.21528 l -6.23696,0.004 c -10.11668,0.0127 -27.50515,3.09307 -32.6835,5.79389 -10.84565,5.65668 -11.35541,19.1926 -0.9313,24.71887 7.65156,4.05665 15.75723,4.21651 24.12372,0.47565 z m -93.69458,16.79332 c -11.53553,-5.78369 -9.47438,-23.10377 3.20931,-26.97118 11.26068,-3.43355 21.71721,8.99436 16.56604,19.68878 -3.90725,8.11204 -12.10179,11.12984 -19.77543,7.2824 z m -359.1583,-51.37569 V 408.4526 h 19.52438 v 103.21442 h -19.52438 z m 43.38515,0 1e-5,-51.60934 h 20.6089 l 0.004,7.45147 0.004,7.45148 2.03701,-3.39975 c 5.24802,-8.75901 15.47855,-13.71094 28.32588,-13.71094 13.88171,0 23.86968,5.3882 29.30037,15.80607 l 2.57129,4.93282 2.88012,-4.57386 c 4.11299,-6.53177 8.45231,-10.62772 14.05886,-13.27085 4.00037,-1.8857 7.03389,-2.3046 16.81243,-2.32159 10.88431,-0.017 12.47222,0.24936 18.09407,3.05922 11.02534,5.51012 17.36722,15.73896 19.37059,31.24003 0.62692,4.85167 0.98856,22.46996 0.81375,39.6422 l -0.31478,30.90953 -19.11443,-0.0595 0.0884,-30.32499 c 0.0508,-17.53418 -0.41045,-33.11851 -1.09425,-36.94811 -2.33128,-13.05632 -9.83972,-19.53924 -22.63011,-19.53924 -10.53682,0 -17.67734,4.68303 -22.21848,14.5716 -2.13536,4.64989 -2.30299,7.13074 -2.62227,38.80491 l -0.34112,33.83727 -19.38419,-0.051 v -32.78459 c 0,-35.89417 -0.65428,-40.91067 -6.21317,-47.63318 -3.85368,-4.66094 -8.58697,-6.52583 -16.5652,-6.52583 -10.64556,0 -17.0996,4.16847 -21.36462,13.79889 -1.72202,3.88805 -1.99623,8.50456 -2.29491,38.63712 l -0.33917,34.22129 h -20.47296 z m 468.60033,0.0438 v -51.65606 h 20.63014 l -0.28207,51.52437 -0.28207,51.52438 -20.06643,0.25743 z m -509.55136,-71.52845 c -6.5203,-4.04595 -7.82105,-13.97432 -2.57868,-19.6858 5.51437,-6.00757 14.14085,-6.03348 19.08173,-0.0562 2.17308,2.62834 2.77707,4.56493 2.77707,8.90429 0,4.83426 -0.47272,6.02626 -3.68789,9.29852 -4.40266,4.48082 -9.968,5.03054 -15.59197,1.54085 z m 512.52498,0.34069 c -4.08525,-2.66776 -6.61928,-8.43531 -5.75863,-13.10602 2.06157,-11.18379 14.54908,-15.15231 22.43258,-7.12905 2.60961,2.65591 3.11504,4.07675 3.11504,8.75732 0,7.91238 -3.91495,12.34775 -11.45355,12.97518 -3.85207,0.32073 -6.19617,-0.10067 -8.33591,-1.49764 z m -490.01041,-49.79542 c -2.61364,-2.15392 -3.68542,-7.25903 -2.14071,-10.19655 0.52926,-1.00644 6.75012,-10.47437 13.82394,-21.03922 28.58798,-42.69697 77.70499,-116.28561 129.24211,-193.62952 29.93757,-44.931424 55.8786001,-83.057501 57.65003015,-84.726978 1.98727995,-1.875293 4.43112995,-3.03577 6.39328995,-3.03577 5.7522599,0 2.62087,-4.221396 55.3136199,74.569938 11.60774,17.35661 21.41092,31.74978 21.78518,31.98513 0.68733,0.43236 41.40598,-42.9476 42.07632,-44.829477 0.19923,-0.557427 -1.0214,-1.061201 -2.71173,-1.119484 -1.69021,-0.05811 -5.4532,-0.67926 -8.36225,-1.379888 l -5.2888,-1.2739 12.33925,-7.07637 c 42.42382,-24.329321 56.55404,-32.192002 57.00858,-31.727267 0.2842,0.288951 -7.9179,16.005732 -18.2266,34.926034 -20.09998,36.892452 -19.56176,36.272662 -21.12079,24.310632 -0.39634,-3.04146 -1.07921,-5.530085 -1.51727,-5.530085 -0.43793,0 -3.14167,2.607995 -6.00799,5.795585 -7.21485,8.02326 -21.06811,22.92026 -30.76212,33.07942 l -8.12733,8.51731 14.91696,22.39222 c 8.20465,12.31589 20.5694,30.83731 27.47712,41.15875 75.9548,113.48615 79.50615,118.96187 79.50615,122.59818 0,2.61866 -0.80245,4.28372 -2.85799,5.92898 -3.70398,2.96525 -7.21358,2.89992 -10.52365,-0.19562 -1.46064,-1.36609 -23.54258,-33.77992 -49.069,-72.02962 -25.52812,-38.25055 -47.94329,-71.78323 -49.81242,-74.51472 -1.86871,-2.73221 -7.44,-11.04403 -12.38046,-18.47044 l -8.98288,-13.50279 -10.52748,11.29509 c -5.79006,6.21232 -29.7753,31.91079 -53.30004,57.10628 -23.5251799,25.19678 -46.92801,50.27545 -52.00441,55.72993 -5.07809,5.45532 -14.60261,15.64125 -21.16454,22.63521 -6.56236,6.99396 -16.44031,17.55753 -21.95128,23.47462 l -10.01983,10.75814 H -142.307 c -50.53883,0 -54.28559,-0.13186 -56.5413,-1.99042 z m 114.62888,-25.88325 c 6.54919,-6.83041 26.23499,-27.81866 43.74622,-46.63914 17.51166,-18.82175 37.4956801,-40.18255 44.4089301,-47.4675 C 10.84528,211.84687 28.85268,192.59947 43.94806,176.35924 L 71.39459,146.83373 48.80951,113.12687 C 13.9234,61.063005 6.5148301,50.230525 5.7854501,50.230525 c -0.37213,0 -19.7588701,28.563758 -43.0835401,63.474075 -85.41092,127.84451 -136.76112,204.86131 -138.93186,208.36594 l -2.22121,3.58772 h 82.31835 z"
       stroke-width="5.87885"
       fill="url(#vectorCampGradient)"
       stroke="none"
       id="path49-1"
       style="fill:url(#vectorCampGradient-9)" />
    <path
       d="m 80.037347,450.67766 c -5.532992,-1.5896 -9.630077,-4.15423 -13.485248,-8.44116 l -3.197909,-3.55596 1.482924,-2.10359 c 0.815606,-1.15689 3.003255,-3.61958 4.861564,-5.47264 2.964264,-2.95617 3.433935,-3.19098 3.829462,-1.91341 0.247957,0.80073 1.703598,2.778 3.23484,4.39366 7.868366,8.30342 19.95079,8.45075 23.86977,0.29103 2.89404,-6.02554 -0.4461,-10.56232 -10.674298,-14.49847 -14.614239,-5.6242 -19.297084,-8.76994 -21.687112,-14.56841 -1.752441,-4.25182 -1.402221,-13.13385 0.677365,-17.1786 4.037427,-7.85243 13.234171,-11.95732 25.519527,-11.38999 7.720958,0.35631 12.824738,2.21025 18.096618,6.57288 l 2.75328,2.2784 -3.76713,4.97743 c -2.0719,2.73759 -3.87141,5.08834 -3.99902,5.22371 -0.12761,0.13537 -1.80069,-0.98114 -3.71781,-2.48121 -1.91727,-1.50008 -4.750786,-3.08741 -6.296574,-3.52742 -8.143966,-2.31826 -16.009077,0.93316 -16.168587,6.68388 -0.135444,4.88337 1.73159,6.40032 12.803481,10.40165 8.60064,3.10819 12.79609,5.34865 15.94467,8.51434 10.24184,10.29752 5.74805,29.31411 -8.21663,34.77129 -5.524116,2.15847 -16.177735,2.65733 -21.863154,1.02394 z m 224.368103,0.0395 c -5.91994,-1.64625 -7.80455,-2.53286 -12.34827,-5.8093 -9.66937,-6.97174 -14.70492,-17.74172 -14.63876,-31.3084 0.0547,-11.15882 4.07465,-20.79531 11.64289,-27.90722 7.71034,-7.24588 15.41889,-9.94294 26.99531,-9.4455 8.69871,0.37376 13.8341,2.47408 19.62586,8.02701 l 3.7952,3.6387 v -47.37036 h 15.08479 v 109.77895 h -14.33065 v -10.95461 l -3.58252,3.23854 c -8.82927,7.98122 -21.36898,11.13589 -32.24501,8.11182 z m 20.2586,-12.79087 c 5.47628,-2.10007 10.47816,-6.75913 13.07435,-12.17773 1.84314,-3.84724 2.11652,-5.31658 2.11652,-11.37566 0,-5.9106 -0.30068,-7.61496 -1.99723,-11.32418 -2.43327,-5.31982 -6.68029,-9.81408 -11.63727,-12.31456 -5.24617,-2.64642 -15.73525,-2.69082 -20.52888,-0.0871 -4.94576,2.68641 -8.6922,6.55797 -11.13658,11.50773 -1.98852,4.02687 -2.21583,5.24038 -2.21657,11.83138 -7e-4,6.48011 0.24755,7.86315 2.11132,11.75291 2.49662,5.21129 8.26359,10.83268 12.80259,12.48027 4.72392,1.71449 12.51873,1.58331 17.41161,-0.29338 z m 96.02908,12.41984 c -7.35056,-2.40731 -12.47089,-7.04737 -14.79947,-13.41083 -1.13531,-3.10258 -0.98507,-13.25882 0.24075,-16.26558 3.86609,-9.48419 13.59837,-13.3231 37.61816,-14.83851 l 8.86243,-0.55913 v -2.0209 c -0.0146,-7.09322 -4.6285,-13.2389 -10.98659,-14.63477 -7.4699,-1.63986 -16.22176,2.10291 -19.02945,8.13801 -1.24989,2.68662 -1.30255,2.71001 -5.04319,2.24921 -2.07907,-0.25611 -4.92657,-0.46872 -6.32791,-0.47244 l -2.5477,-0.009 0.49348,-3.16333 c 1.12674,-7.22228 5.6,-12.77684 13.24246,-16.44228 4.30622,-2.06552 5.87947,-2.37967 13.39183,-2.67444 7.33757,-0.28797 9.24165,-0.0937 13.79515,1.40707 8.56317,2.82221 13.93156,8.67466 15.80115,17.22559 0.414,1.89386 0.77914,15.03843 0.81139,29.21002 l 0.0583,25.76663 -13.65513,0.11548 v -10.05086 l -2.19363,2.72766 c -6.61293,8.22309 -18.62739,11.33481 -29.72824,7.69944 z m 20.98493,-12.3342 c 6.20292,-2.79281 10.93665,-10.91034 10.93665,-18.7544 v -2.95206 h -4.33702 c -7.03472,0.009 -19.12603,2.16613 -22.72685,4.0576 -7.54171,3.96145 -7.89616,13.44083 -0.64759,17.31102 5.32059,2.84086 10.95695,2.95289 16.77472,0.33304 z m -65.1517,11.76063 c -8.02138,-4.05044 -6.58813,-16.17993 2.23163,-18.88836 7.83026,-2.40453 15.10134,6.29893 11.51941,13.78843 -2.71696,5.68089 -8.41513,7.79432 -13.7511,5.09993 z M 126.7811,413.79323 v -36.14278 h 13.57652 v 72.28267 H 126.7811 Z m 30.1684,0 2e-5,-36.14278 h 14.33064 l 0.003,5.2184 0.003,5.21833 1.41647,-2.38086 c 3.64928,-6.13407 10.76321,-9.60203 19.69676,-9.60203 9.65282,0 16.59809,3.77344 20.37437,11.06925 l 1.78798,3.45452 2.00274,-3.2031 c 2.86002,-4.57432 5.87742,-7.44281 9.77601,-9.29381 2.7817,-1.32059 4.8911,-1.61395 11.69073,-1.62586 7.56854,-0.012 8.67271,0.17466 12.58193,2.14241 7.66662,3.85887 12.07651,11.02226 13.46958,21.87792 0.43595,3.39765 0.6874,15.73603 0.56586,27.76206 l -0.21888,21.64636 -13.29147,-0.042 0.0615,-21.23709 c 0.0354,-12.2794 -0.2854,-23.19336 -0.7609,-25.87528 -1.62109,-9.14352 -6.84217,-13.6836 -15.73613,-13.6836 -7.3269,0 -12.29217,3.27958 -15.4499,10.20472 -1.48486,3.25633 -1.60141,4.99374 -1.82343,27.17569 l -0.2372,23.69667 -13.47905,-0.0362 v -22.95956 c 0,-25.13718 -0.45495,-28.65031 -4.3204,-33.35818 -2.67971,-3.26417 -5.97105,-4.57019 -11.51881,-4.57019 -7.40254,0 -11.89043,2.91927 -14.85616,9.66358 -1.19744,2.7229 -1.38812,5.95591 -1.5958,27.05815 l -0.23585,23.96568 H 156.95 Z m 325.84719,0.0308 v -36.17549 h 14.34538 l -0.19617,36.08326 -0.19608,36.08328 -13.95342,0.18026 z M 128.4737,363.73143 c -4.53398,-2.83342 -5.43848,-9.78642 -1.79313,-13.78626 3.83449,-4.20718 9.83302,-4.22534 13.26873,-0.0393 1.51108,1.84067 1.93107,3.19689 1.93107,6.23581 0,3.38552 -0.32872,4.22028 -2.56443,6.51191 -3.06144,3.13795 -6.93137,3.5229 -10.84207,1.07909 z m 356.3907,0.2386 c -2.84073,-1.86827 -4.60276,-5.90738 -4.00434,-9.17835 1.43353,-7.83218 10.11689,-10.61138 15.59876,-4.99258 1.8146,1.85997 2.16613,2.85501 2.16613,6.13288 0,5.54117 -2.72228,8.64732 -7.96436,9.0867 -2.67866,0.22466 -4.30865,-0.0705 -5.79649,-1.04879 z M 144.12948,329.09754 c -1.81743,-1.50844 -2.5627,-5.08362 -1.48857,-7.14081 0.36803,-0.70482 4.69379,-7.33536 9.61266,-14.73409 19.879,-29.90133 54.03313,-81.43659 89.87012,-135.60172 20.81746,-31.46617 38.85589,-58.16644 40.08768,-59.3356 1.38188,-1.3133 3.08124,-2.12599 4.44565,-2.12599 3.99991,0 1.82246,-2.95632 38.46303,52.22246 8.07159,12.15511 14.88836,22.23487 15.1486,22.39967 0.47794,0.30279 28.79218,-30.07685 29.2583,-31.39476 0.13854,-0.39038 -0.71023,-0.74318 -1.88563,-0.78399 -1.17531,-0.0406 -3.79195,-0.4757 -5.81479,-0.96636 l -3.67764,-0.89213 8.58025,-4.95569 c 29.49994,-17.03819 39.32557,-22.54456 39.64164,-22.2191 0.19761,0.20236 -5.50581,11.20907 -12.67409,24.45924 -13.97679,25.83635 -13.60252,25.40231 -14.68662,17.02511 -0.2756,-2.12998 -0.75044,-3.8728 -1.05505,-3.8728 -0.30452,0 -2.1846,1.82641 -4.17773,4.05874 -5.01694,5.61881 -14.64998,16.05141 -21.39083,23.16602 l -5.65144,5.96481 10.3727,15.68161 c 5.70521,8.625 14.30319,21.59584 19.10657,28.8241 52.81611,79.4761 55.28558,83.31082 55.28558,85.85739 0,1.83388 -0.558,2.99995 -1.98735,4.15215 -2.57557,2.07662 -5.01598,2.03086 -7.31775,-0.13699 -1.01563,-0.95669 -16.37062,-23.6566 -34.12074,-50.44345 -17.75128,-26.78744 -33.33796,-50.27089 -34.63768,-52.18379 -1.29944,-1.91341 -5.1735,-7.73431 -8.60891,-12.93514 l -6.24637,-9.45622 -7.3204,7.91014 c -4.02621,4.35057 -20.70463,22.34761 -37.06287,39.9924 -16.35853,17.64569 -32.63198,35.20868 -36.16191,39.02853 -3.53114,3.82044 -10.15411,10.95379 -14.71704,15.85178 -4.56323,4.89798 -11.43198,12.2958 -15.2641,16.43963 l -6.96742,7.5341 h -37.63887 c -35.1428,0 -37.74817,-0.0923 -39.3167,-1.39393 z m 79.70863,-18.12645 c 4.55407,-4.78343 18.24284,-19.48182 30.41949,-32.6621 12.17695,-13.18116 26.0731,-28.14046 30.88031,-33.24222 4.80692,-5.10236 17.3286,-18.58161 27.82536,-29.95489 l 19.08529,-20.67717 -15.70482,-23.60542 c -24.25849,-36.46113 -29.41013,-44.04728 -29.91733,-44.04728 -0.25876,0 -13.73958,20.00364 -29.95868,44.45187 -59.39157,89.53147 -95.09857,143.46751 -96.60803,145.92185 l -1.54454,2.51255 h 57.2411 z"
       stroke-width="4.10246"
       fill="url(#vectorCampGradient)"
       stroke="none"
       id="path49-7"
       style="fill:url(#vectorCampGradient-2)" />
  </g>
</svg>
